<svg width="20" height="20" viewBox="0 0 20 20" fill="none" xmlns="http://www.w3.org/2000/svg">
<path fill-rule="evenodd" clip-rule="evenodd" d="M-0.000244141 8.66993C-0.000244141 3.88166 3.8401 0 8.5774 0C10.8523 0 13.0341 0.913436 14.6427 2.53936C16.2513 4.16529 17.155 6.37052 17.155 8.66993C17.155 13.4582 13.3147 17.3399 8.5774 17.3399C3.8401 17.3399 -0.000244141 13.4582 -0.000244141 8.66993ZM17.0131 15.6543L19.5678 17.7164H19.6121C20.129 18.2388 20.129 19.0858 19.6121 19.6082C19.0953 20.1306 18.2573 20.1306 17.7405 19.6082L15.6205 17.1784C15.4201 16.9766 15.3074 16.7023 15.3074 16.4164C15.3074 16.1304 15.4201 15.8561 15.6205 15.6543C16.007 15.2704 16.6266 15.2704 17.0131 15.6543Z" fill="#6E9CFD"/>
</svg>
